<mxfile host="app.diagrams.net" modified="2024-01-05T09:19:53.121Z" agent="Mozilla/5.0 (X11; Ubuntu; Linux x86_64; rv:121.0) Gecko/20100101 Firefox/121.0" etag="drDiXjQoKOTBnsQVtFj6" version="22.1.16" type="github" pages="3">
  <diagram id="uoDMjpQz2g1OpdzAOL7i" name="Page-1">
    <mxGraphModel dx="1294" dy="634" grid="1" gridSize="10" guides="1" tooltips="1" connect="1" arrows="1" fold="1" page="1" pageScale="1" pageWidth="850" pageHeight="1100" math="0" shadow="0">
      <root>
        <mxCell id="0" />
        <mxCell id="1" parent="0" />
        <mxCell id="rqCaYqxzmAwf0BiEEohi-2" value="" style="rounded=1;whiteSpace=wrap;html=1;" vertex="1" parent="1">
          <mxGeometry x="126.25" y="130" width="202.5" height="70" as="geometry" />
        </mxCell>
        <mxCell id="rqCaYqxzmAwf0BiEEohi-1" value="" style="rounded=1;whiteSpace=wrap;html=1;" vertex="1" parent="1">
          <mxGeometry x="150" y="240" width="160" height="90" as="geometry" />
        </mxCell>
        <mxCell id="yd5X-1dfh4tv0nBd0awC-1" value="" style="rounded=1;whiteSpace=wrap;html=1;" parent="1" vertex="1">
          <mxGeometry x="162.5" y="30" width="130" height="30" as="geometry" />
        </mxCell>
        <mxCell id="rqCaYqxzmAwf0BiEEohi-8" style="edgeStyle=orthogonalEdgeStyle;rounded=0;orthogonalLoop=1;jettySize=auto;html=1;exitX=0.5;exitY=1;exitDx=0;exitDy=0;entryX=0.5;entryY=0;entryDx=0;entryDy=0;" edge="1" parent="1" source="yd5X-1dfh4tv0nBd0awC-2" target="yd5X-1dfh4tv0nBd0awC-3">
          <mxGeometry relative="1" as="geometry" />
        </mxCell>
        <mxCell id="yd5X-1dfh4tv0nBd0awC-2" value="echo 1 &amp;gt; brightness" style="text;html=1;strokeColor=none;fillColor=none;align=center;verticalAlign=middle;whiteSpace=wrap;rounded=0;" parent="1" vertex="1">
          <mxGeometry x="165" y="30" width="125" height="30" as="geometry" />
        </mxCell>
        <mxCell id="yd5X-1dfh4tv0nBd0awC-3" value="&lt;div&gt;sysfs&lt;/div&gt;&lt;div&gt;(LED subsystem)&lt;/div&gt;" style="rounded=1;whiteSpace=wrap;html=1;" parent="1" vertex="1">
          <mxGeometry x="160.93" y="80" width="133.13" height="35" as="geometry" />
        </mxCell>
        <mxCell id="yd5X-1dfh4tv0nBd0awC-7" value="userspace" style="text;html=1;strokeColor=none;fillColor=none;align=center;verticalAlign=middle;whiteSpace=wrap;rounded=0;" parent="1" vertex="1">
          <mxGeometry x="87.5" y="50" width="60" height="30" as="geometry" />
        </mxCell>
        <mxCell id="yd5X-1dfh4tv0nBd0awC-8" value="kernelspace" style="text;html=1;strokeColor=none;fillColor=none;align=center;verticalAlign=middle;whiteSpace=wrap;rounded=0;" parent="1" vertex="1">
          <mxGeometry x="87.5" y="100" width="60" height="30" as="geometry" />
        </mxCell>
        <mxCell id="yd5X-1dfh4tv0nBd0awC-11" value="LED" style="rounded=1;whiteSpace=wrap;html=1;" parent="1" vertex="1">
          <mxGeometry x="212.5" y="375" width="30" height="20" as="geometry" />
        </mxCell>
        <mxCell id="yd5X-1dfh4tv0nBd0awC-13" value="" style="endArrow=none;html=1;rounded=0;" parent="1" edge="1">
          <mxGeometry width="50" height="50" relative="1" as="geometry">
            <mxPoint x="30" y="360" as="sourcePoint" />
            <mxPoint x="560" y="360" as="targetPoint" />
          </mxGeometry>
        </mxCell>
        <mxCell id="yd5X-1dfh4tv0nBd0awC-14" value="&lt;div&gt;hardware&lt;/div&gt;" style="text;html=1;strokeColor=none;fillColor=none;align=center;verticalAlign=middle;whiteSpace=wrap;rounded=0;" parent="1" vertex="1">
          <mxGeometry x="87.5" y="365" width="60" height="30" as="geometry" />
        </mxCell>
        <mxCell id="yd5X-1dfh4tv0nBd0awC-29" value="__led_set_brightness" style="ellipse;whiteSpace=wrap;html=1;" parent="1" vertex="1">
          <mxGeometry x="167.5" y="160" width="120" height="30" as="geometry" />
        </mxCell>
        <mxCell id="yd5X-1dfh4tv0nBd0awC-34" value="" style="edgeStyle=orthogonalEdgeStyle;rounded=0;orthogonalLoop=1;jettySize=auto;html=1;" parent="1" source="yd5X-1dfh4tv0nBd0awC-30" target="yd5X-1dfh4tv0nBd0awC-31" edge="1">
          <mxGeometry relative="1" as="geometry" />
        </mxCell>
        <mxCell id="yd5X-1dfh4tv0nBd0awC-30" value="gpio_led_set" style="ellipse;whiteSpace=wrap;html=1;" parent="1" vertex="1">
          <mxGeometry x="185" y="250" width="85" height="20" as="geometry" />
        </mxCell>
        <mxCell id="yd5X-1dfh4tv0nBd0awC-31" value="gpio_set_value" style="ellipse;whiteSpace=wrap;html=1;" parent="1" vertex="1">
          <mxGeometry x="167.5" y="300" width="120" height="20" as="geometry" />
        </mxCell>
        <mxCell id="yd5X-1dfh4tv0nBd0awC-32" value="" style="endArrow=classic;html=1;rounded=0;entryX=0.5;entryY=0;entryDx=0;entryDy=0;exitX=0.5;exitY=1;exitDx=0;exitDy=0;" parent="1" source="yd5X-1dfh4tv0nBd0awC-29" target="yd5X-1dfh4tv0nBd0awC-30" edge="1">
          <mxGeometry relative="1" as="geometry">
            <mxPoint x="450" y="170" as="sourcePoint" />
            <mxPoint x="550" y="170" as="targetPoint" />
          </mxGeometry>
        </mxCell>
        <mxCell id="yd5X-1dfh4tv0nBd0awC-33" value="&lt;div&gt;via a function pointer&lt;/div&gt;&lt;div&gt;brightness_set&lt;br&gt;&lt;/div&gt;" style="edgeLabel;resizable=0;html=1;align=center;verticalAlign=middle;" parent="yd5X-1dfh4tv0nBd0awC-32" connectable="0" vertex="1">
          <mxGeometry relative="1" as="geometry" />
        </mxCell>
        <mxCell id="yd5X-1dfh4tv0nBd0awC-35" value="&lt;div&gt;driver&lt;/div&gt;&lt;div&gt;leds-gpio.c&lt;br&gt;&lt;/div&gt;" style="text;html=1;strokeColor=none;fillColor=none;align=center;verticalAlign=middle;whiteSpace=wrap;rounded=0;" parent="1" vertex="1">
          <mxGeometry x="150" y="265" width="60" height="30" as="geometry" />
        </mxCell>
        <mxCell id="yd5X-1dfh4tv0nBd0awC-36" value="" style="endArrow=classic;html=1;rounded=0;exitX=0.5;exitY=1;exitDx=0;exitDy=0;entryX=0.5;entryY=0;entryDx=0;entryDy=0;" parent="1" source="yd5X-1dfh4tv0nBd0awC-3" target="yd5X-1dfh4tv0nBd0awC-29" edge="1">
          <mxGeometry width="50" height="50" relative="1" as="geometry">
            <mxPoint x="340" y="280" as="sourcePoint" />
            <mxPoint x="390" y="230" as="targetPoint" />
          </mxGeometry>
        </mxCell>
        <mxCell id="yd5X-1dfh4tv0nBd0awC-37" value="" style="endArrow=classic;html=1;rounded=0;entryX=0.5;entryY=0;entryDx=0;entryDy=0;exitX=0.5;exitY=1;exitDx=0;exitDy=0;" parent="1" source="yd5X-1dfh4tv0nBd0awC-31" target="yd5X-1dfh4tv0nBd0awC-11" edge="1">
          <mxGeometry width="50" height="50" relative="1" as="geometry">
            <mxPoint x="340" y="280" as="sourcePoint" />
            <mxPoint x="390" y="230" as="targetPoint" />
          </mxGeometry>
        </mxCell>
        <mxCell id="rqCaYqxzmAwf0BiEEohi-3" value="LED framework&amp;nbsp;&amp;nbsp;&amp;nbsp;&amp;nbsp;&amp;nbsp;&amp;nbsp; led-core.c" style="text;html=1;strokeColor=none;fillColor=none;align=center;verticalAlign=middle;whiteSpace=wrap;rounded=0;" vertex="1" parent="1">
          <mxGeometry x="115" y="130" width="213.75" height="30" as="geometry" />
        </mxCell>
        <mxCell id="rqCaYqxzmAwf0BiEEohi-5" value="" style="endArrow=none;html=1;rounded=0;exitX=1;exitY=0.5;exitDx=0;exitDy=0;" edge="1" parent="1" source="yd5X-1dfh4tv0nBd0awC-3">
          <mxGeometry width="50" height="50" relative="1" as="geometry">
            <mxPoint x="300" y="100" as="sourcePoint" />
            <mxPoint x="470" y="98" as="targetPoint" />
          </mxGeometry>
        </mxCell>
        <mxCell id="rqCaYqxzmAwf0BiEEohi-6" value="" style="endArrow=none;html=1;rounded=0;entryX=0;entryY=0.5;entryDx=0;entryDy=0;" edge="1" parent="1" target="yd5X-1dfh4tv0nBd0awC-3">
          <mxGeometry width="50" height="50" relative="1" as="geometry">
            <mxPoint x="40" y="98" as="sourcePoint" />
            <mxPoint x="80" y="100" as="targetPoint" />
          </mxGeometry>
        </mxCell>
      </root>
    </mxGraphModel>
  </diagram>
  <diagram id="lqCGiLtStRH8IOlvX0pn" name="Page-2">
    <mxGraphModel dx="1294" dy="634" grid="1" gridSize="10" guides="1" tooltips="1" connect="1" arrows="1" fold="1" page="1" pageScale="1" pageWidth="850" pageHeight="1100" math="0" shadow="0">
      <root>
        <mxCell id="0" />
        <mxCell id="1" parent="0" />
        <mxCell id="-sMh29ziEHTuWZXqFw-G-16" style="edgeStyle=orthogonalEdgeStyle;rounded=0;orthogonalLoop=1;jettySize=auto;html=1;exitX=0.5;exitY=1;exitDx=0;exitDy=0;entryX=0.5;entryY=0;entryDx=0;entryDy=0;" parent="1" source="-sMh29ziEHTuWZXqFw-G-1" target="-sMh29ziEHTuWZXqFw-G-2" edge="1">
          <mxGeometry relative="1" as="geometry" />
        </mxCell>
        <mxCell id="-sMh29ziEHTuWZXqFw-G-1" value="# ./user/bin/myapp" style="rounded=1;whiteSpace=wrap;html=1;" parent="1" vertex="1">
          <mxGeometry x="360" y="40" width="120" height="60" as="geometry" />
        </mxCell>
        <mxCell id="-sMh29ziEHTuWZXqFw-G-15" style="edgeStyle=orthogonalEdgeStyle;rounded=0;orthogonalLoop=1;jettySize=auto;html=1;exitX=0.5;exitY=1;exitDx=0;exitDy=0;entryX=0.5;entryY=0;entryDx=0;entryDy=0;" parent="1" source="-sMh29ziEHTuWZXqFw-G-2" target="-sMh29ziEHTuWZXqFw-G-3" edge="1">
          <mxGeometry relative="1" as="geometry" />
        </mxCell>
        <mxCell id="-sMh29ziEHTuWZXqFw-G-2" value="&lt;div&gt;remove_trigger()&lt;/div&gt;&lt;div&gt;/*set all trigger to none*/&lt;br&gt;&lt;/div&gt;" style="rounded=1;whiteSpace=wrap;html=1;" parent="1" vertex="1">
          <mxGeometry x="360" y="140" width="120" height="60" as="geometry" />
        </mxCell>
        <mxCell id="-sMh29ziEHTuWZXqFw-G-3" value="&lt;div&gt;control()&lt;/div&gt;&lt;div&gt;/*for each led, check brightness file*/&lt;br&gt;&lt;/div&gt;" style="rounded=1;whiteSpace=wrap;html=1;" parent="1" vertex="1">
          <mxGeometry x="360" y="240" width="120" height="60" as="geometry" />
        </mxCell>
        <mxCell id="-sMh29ziEHTuWZXqFw-G-4" value="" style="endArrow=classic;html=1;rounded=0;exitX=0.25;exitY=1;exitDx=0;exitDy=0;" parent="1" source="-sMh29ziEHTuWZXqFw-G-3" edge="1">
          <mxGeometry relative="1" as="geometry">
            <mxPoint x="390" y="320" as="sourcePoint" />
            <mxPoint x="360" y="330" as="targetPoint" />
          </mxGeometry>
        </mxCell>
        <mxCell id="-sMh29ziEHTuWZXqFw-G-5" value="1" style="edgeLabel;resizable=0;html=1;align=center;verticalAlign=middle;" parent="-sMh29ziEHTuWZXqFw-G-4" connectable="0" vertex="1">
          <mxGeometry relative="1" as="geometry" />
        </mxCell>
        <mxCell id="-sMh29ziEHTuWZXqFw-G-7" value="" style="endArrow=classic;html=1;rounded=0;exitX=0.75;exitY=1;exitDx=0;exitDy=0;" parent="1" source="-sMh29ziEHTuWZXqFw-G-3" edge="1">
          <mxGeometry relative="1" as="geometry">
            <mxPoint x="460" y="320" as="sourcePoint" />
            <mxPoint x="480" y="330" as="targetPoint" />
          </mxGeometry>
        </mxCell>
        <mxCell id="-sMh29ziEHTuWZXqFw-G-8" value="0" style="edgeLabel;resizable=0;html=1;align=center;verticalAlign=middle;" parent="-sMh29ziEHTuWZXqFw-G-7" connectable="0" vertex="1">
          <mxGeometry relative="1" as="geometry" />
        </mxCell>
        <mxCell id="-sMh29ziEHTuWZXqFw-G-9" value="&lt;div&gt;turn_off()&lt;/div&gt;&lt;div&gt;/*set brightness to 0*/&lt;br&gt;&lt;/div&gt;" style="rounded=1;whiteSpace=wrap;html=1;" parent="1" vertex="1">
          <mxGeometry x="280" y="330" width="120" height="60" as="geometry" />
        </mxCell>
        <mxCell id="-sMh29ziEHTuWZXqFw-G-10" value="&lt;div&gt;turn_on()&lt;/div&gt;&lt;div&gt;/*set brightness to 1*/&lt;br&gt;&lt;/div&gt;" style="rounded=1;whiteSpace=wrap;html=1;" parent="1" vertex="1">
          <mxGeometry x="440" y="330" width="120" height="60" as="geometry" />
        </mxCell>
        <mxCell id="-sMh29ziEHTuWZXqFw-G-11" value="&lt;div&gt;sleep()&lt;/div&gt;&lt;div&gt;/*delay for some time to observe */&lt;br&gt;&lt;/div&gt;" style="rounded=1;whiteSpace=wrap;html=1;" parent="1" vertex="1">
          <mxGeometry x="360" y="420" width="120" height="60" as="geometry" />
        </mxCell>
        <mxCell id="-sMh29ziEHTuWZXqFw-G-12" value="" style="endArrow=classic;html=1;rounded=0;entryX=0.25;entryY=0;entryDx=0;entryDy=0;exitX=0.5;exitY=1;exitDx=0;exitDy=0;" parent="1" source="-sMh29ziEHTuWZXqFw-G-9" target="-sMh29ziEHTuWZXqFw-G-11" edge="1">
          <mxGeometry width="50" height="50" relative="1" as="geometry">
            <mxPoint x="290" y="450" as="sourcePoint" />
            <mxPoint x="340" y="400" as="targetPoint" />
          </mxGeometry>
        </mxCell>
        <mxCell id="-sMh29ziEHTuWZXqFw-G-13" value="" style="endArrow=classic;html=1;rounded=0;exitX=0.5;exitY=1;exitDx=0;exitDy=0;entryX=0.75;entryY=0;entryDx=0;entryDy=0;" parent="1" source="-sMh29ziEHTuWZXqFw-G-10" target="-sMh29ziEHTuWZXqFw-G-11" edge="1">
          <mxGeometry width="50" height="50" relative="1" as="geometry">
            <mxPoint x="510" y="450" as="sourcePoint" />
            <mxPoint x="560" y="400" as="targetPoint" />
          </mxGeometry>
        </mxCell>
        <mxCell id="-sMh29ziEHTuWZXqFw-G-14" value="" style="endArrow=classic;html=1;rounded=0;exitX=0;exitY=0.5;exitDx=0;exitDy=0;entryX=0;entryY=0.5;entryDx=0;entryDy=0;" parent="1" source="-sMh29ziEHTuWZXqFw-G-11" target="-sMh29ziEHTuWZXqFw-G-3" edge="1">
          <mxGeometry width="50" height="50" relative="1" as="geometry">
            <mxPoint x="380" y="380" as="sourcePoint" />
            <mxPoint x="430" y="330" as="targetPoint" />
            <Array as="points">
              <mxPoint x="220" y="450" />
              <mxPoint x="220" y="270" />
              <mxPoint x="290" y="270" />
            </Array>
          </mxGeometry>
        </mxCell>
      </root>
    </mxGraphModel>
  </diagram>
  <diagram id="lWDiav30QB7XebCbXtxZ" name="Page-3">
    <mxGraphModel dx="1294" dy="634" grid="1" gridSize="10" guides="1" tooltips="1" connect="1" arrows="1" fold="1" page="1" pageScale="1" pageWidth="850" pageHeight="1100" math="0" shadow="0">
      <root>
        <mxCell id="0" />
        <mxCell id="1" parent="0" />
        <mxCell id="5DwLIJIraW_3xeG-XSwe-6" value="" style="rounded=0;whiteSpace=wrap;html=1;" parent="1" vertex="1">
          <mxGeometry x="280" y="70" width="200" height="190" as="geometry" />
        </mxCell>
        <mxCell id="5DwLIJIraW_3xeG-XSwe-10" style="edgeStyle=orthogonalEdgeStyle;rounded=0;orthogonalLoop=1;jettySize=auto;html=1;exitX=0.5;exitY=1;exitDx=0;exitDy=0;entryX=0.5;entryY=0;entryDx=0;entryDy=0;" parent="1" source="5DwLIJIraW_3xeG-XSwe-1" target="5DwLIJIraW_3xeG-XSwe-2" edge="1">
          <mxGeometry relative="1" as="geometry" />
        </mxCell>
        <mxCell id="5DwLIJIraW_3xeG-XSwe-1" value="Boot ROM" style="rounded=1;whiteSpace=wrap;html=1;" parent="1" vertex="1">
          <mxGeometry x="320" y="20" width="120" height="30" as="geometry" />
        </mxCell>
        <mxCell id="5DwLIJIraW_3xeG-XSwe-12" style="edgeStyle=orthogonalEdgeStyle;rounded=0;orthogonalLoop=1;jettySize=auto;html=1;exitX=0.5;exitY=1;exitDx=0;exitDy=0;entryX=0.5;entryY=0;entryDx=0;entryDy=0;" parent="1" source="5DwLIJIraW_3xeG-XSwe-2" target="5DwLIJIraW_3xeG-XSwe-3" edge="1">
          <mxGeometry relative="1" as="geometry" />
        </mxCell>
        <mxCell id="5DwLIJIraW_3xeG-XSwe-2" value="ATF" style="rounded=1;whiteSpace=wrap;html=1;" parent="1" vertex="1">
          <mxGeometry x="320" y="90" width="120" height="30" as="geometry" />
        </mxCell>
        <mxCell id="5DwLIJIraW_3xeG-XSwe-15" style="edgeStyle=orthogonalEdgeStyle;rounded=0;orthogonalLoop=1;jettySize=auto;html=1;exitX=0.5;exitY=1;exitDx=0;exitDy=0;" parent="1" source="5DwLIJIraW_3xeG-XSwe-3" target="5DwLIJIraW_3xeG-XSwe-4" edge="1">
          <mxGeometry relative="1" as="geometry" />
        </mxCell>
        <mxCell id="5DwLIJIraW_3xeG-XSwe-3" value="FSBL" style="rounded=1;whiteSpace=wrap;html=1;" parent="1" vertex="1">
          <mxGeometry x="320" y="140" width="120" height="30" as="geometry" />
        </mxCell>
        <mxCell id="5DwLIJIraW_3xeG-XSwe-16" style="edgeStyle=orthogonalEdgeStyle;rounded=0;orthogonalLoop=1;jettySize=auto;html=1;exitX=0.5;exitY=1;exitDx=0;exitDy=0;entryX=0.5;entryY=0;entryDx=0;entryDy=0;" parent="1" source="5DwLIJIraW_3xeG-XSwe-4" target="5DwLIJIraW_3xeG-XSwe-7" edge="1">
          <mxGeometry relative="1" as="geometry" />
        </mxCell>
        <mxCell id="5DwLIJIraW_3xeG-XSwe-4" value="u-boot" style="rounded=1;whiteSpace=wrap;html=1;" parent="1" vertex="1">
          <mxGeometry x="320" y="200" width="120" height="30" as="geometry" />
        </mxCell>
        <mxCell id="5DwLIJIraW_3xeG-XSwe-17" style="edgeStyle=orthogonalEdgeStyle;rounded=0;orthogonalLoop=1;jettySize=auto;html=1;exitX=0.5;exitY=1;exitDx=0;exitDy=0;entryX=0.5;entryY=0;entryDx=0;entryDy=0;" parent="1" source="5DwLIJIraW_3xeG-XSwe-7" target="5DwLIJIraW_3xeG-XSwe-8" edge="1">
          <mxGeometry relative="1" as="geometry" />
        </mxCell>
        <mxCell id="5DwLIJIraW_3xeG-XSwe-7" value="DT" style="rounded=1;whiteSpace=wrap;html=1;" parent="1" vertex="1">
          <mxGeometry x="320" y="270" width="120" height="30" as="geometry" />
        </mxCell>
        <mxCell id="5DwLIJIraW_3xeG-XSwe-18" style="edgeStyle=orthogonalEdgeStyle;rounded=0;orthogonalLoop=1;jettySize=auto;html=1;exitX=0.5;exitY=1;exitDx=0;exitDy=0;entryX=0.5;entryY=0;entryDx=0;entryDy=0;" parent="1" source="5DwLIJIraW_3xeG-XSwe-8" target="5DwLIJIraW_3xeG-XSwe-9" edge="1">
          <mxGeometry relative="1" as="geometry" />
        </mxCell>
        <mxCell id="5DwLIJIraW_3xeG-XSwe-8" value="Kernel" style="rounded=1;whiteSpace=wrap;html=1;" parent="1" vertex="1">
          <mxGeometry x="320" y="330" width="120" height="30" as="geometry" />
        </mxCell>
        <mxCell id="5DwLIJIraW_3xeG-XSwe-9" value="rootfs" style="rounded=1;whiteSpace=wrap;html=1;" parent="1" vertex="1">
          <mxGeometry x="320" y="390" width="120" height="30" as="geometry" />
        </mxCell>
        <mxCell id="5DwLIJIraW_3xeG-XSwe-19" value="BOOT.BIN" style="text;html=1;strokeColor=none;fillColor=none;align=center;verticalAlign=middle;whiteSpace=wrap;rounded=0;" parent="1" vertex="1">
          <mxGeometry x="410" y="230" width="60" height="30" as="geometry" />
        </mxCell>
        <mxCell id="5DwLIJIraW_3xeG-XSwe-20" value="system.dtb" style="text;html=1;strokeColor=none;fillColor=none;align=center;verticalAlign=middle;whiteSpace=wrap;rounded=0;" parent="1" vertex="1">
          <mxGeometry x="450" y="270" width="60" height="30" as="geometry" />
        </mxCell>
        <mxCell id="5DwLIJIraW_3xeG-XSwe-21" value="Image" style="text;html=1;strokeColor=none;fillColor=none;align=center;verticalAlign=middle;whiteSpace=wrap;rounded=0;" parent="1" vertex="1">
          <mxGeometry x="450" y="330" width="60" height="30" as="geometry" />
        </mxCell>
        <mxCell id="5DwLIJIraW_3xeG-XSwe-22" value="&lt;div&gt;rootfs.tar.gz (SD boot)&lt;/div&gt;&lt;div&gt;rootfs.cpio.gz.u-boot (QSPI boot)&lt;br&gt;&lt;/div&gt;" style="text;html=1;strokeColor=none;fillColor=none;align=center;verticalAlign=middle;whiteSpace=wrap;rounded=0;" parent="1" vertex="1">
          <mxGeometry x="450" y="390" width="120" height="30" as="geometry" />
        </mxCell>
        <mxCell id="9sAaDsQ2-QG_b_2jEp1s-1" value="" style="strokeWidth=2;html=1;shape=mxgraph.flowchart.annotation_2;align=left;labelPosition=right;pointerEvents=1;" vertex="1" parent="1">
          <mxGeometry x="210" y="20" width="50" height="160" as="geometry" />
        </mxCell>
        <mxCell id="9sAaDsQ2-QG_b_2jEp1s-2" value="OCM" style="text;html=1;align=center;verticalAlign=middle;resizable=0;points=[];autosize=1;strokeColor=none;fillColor=none;" vertex="1" parent="1">
          <mxGeometry x="160" y="85" width="50" height="30" as="geometry" />
        </mxCell>
        <mxCell id="9sAaDsQ2-QG_b_2jEp1s-3" value="" style="strokeWidth=2;html=1;shape=mxgraph.flowchart.annotation_2;align=left;labelPosition=right;pointerEvents=1;" vertex="1" parent="1">
          <mxGeometry x="210" y="180" width="50" height="240" as="geometry" />
        </mxCell>
        <mxCell id="9sAaDsQ2-QG_b_2jEp1s-4" value="RAM" style="text;html=1;align=center;verticalAlign=middle;resizable=0;points=[];autosize=1;strokeColor=none;fillColor=none;" vertex="1" parent="1">
          <mxGeometry x="160" y="285" width="50" height="30" as="geometry" />
        </mxCell>
      </root>
    </mxGraphModel>
  </diagram>
</mxfile>
